<?xml version="1.0" encoding="UTF-8" standalone="no"?>
<!-- Created with Inkscape (http://www.inkscape.org/) -->

<svg
   width="210mm"
   height="297mm"
   viewBox="0 0 210 297"
   version="1.1"
   id="svg5"
   inkscape:version="1.2.2 (732a01da63, 2022-12-09)"
   sodipodi:docname="Issam.svg"
   xmlns:inkscape="http://www.inkscape.org/namespaces/inkscape"
   xmlns:sodipodi="http://sodipodi.sourceforge.net/DTD/sodipodi-0.dtd"
   xmlns="http://www.w3.org/2000/svg"
   xmlns:svg="http://www.w3.org/2000/svg">
  <sodipodi:namedview
     id="namedview7"
     pagecolor="#ffffff"
     bordercolor="#000000"
     borderopacity="0.25"
     inkscape:showpageshadow="2"
     inkscape:pageopacity="0.0"
     inkscape:pagecheckerboard="0"
     inkscape:deskcolor="#d1d1d1"
     inkscape:document-units="mm"
     showgrid="false"
     inkscape:zoom="0.52221046"
     inkscape:cx="-295.85773"
     inkscape:cy="429.9033"
     inkscape:window-width="1419"
     inkscape:window-height="1032"
     inkscape:window-x="104"
     inkscape:window-y="0"
     inkscape:window-maximized="0"
     inkscape:current-layer="layer1"
     showguides="true" />
  <defs
     id="defs2">
    <inkscape:path-effect
       effect="bspline"
       id="path-effect1097"
       is_visible="true"
       lpeversion="1"
       weight="33.333333"
       steps="2"
       helper_size="0"
       apply_no_weight="true"
       apply_with_weight="true"
       only_selected="false" />
    <inkscape:path-effect
       effect="bspline"
       id="path-effect1093"
       is_visible="true"
       lpeversion="1"
       weight="33.333333"
       steps="2"
       helper_size="0"
       apply_no_weight="true"
       apply_with_weight="true"
       only_selected="false" />
    <inkscape:perspective
       sodipodi:type="inkscape:persp3d"
       inkscape:vp_x="0 : 148.5 : 1"
       inkscape:vp_y="0 : 1000 : 0"
       inkscape:vp_z="210 : 148.5 : 1"
       inkscape:persp3d-origin="105 : 99 : 1"
       id="perspective862" />
    <filter
       inkscape:collect="always"
       style="color-interpolation-filters:sRGB"
       id="filter2543"
       x="-0.0056911805"
       y="-0.0033245227"
       width="1.0113824"
       height="1.006649">
      <feGaussianBlur
         inkscape:collect="always"
         stdDeviation="0.049643344"
         id="feGaussianBlur2545" />
    </filter>
  </defs>
  <g
     inkscape:label="Calque 1"
     inkscape:groupmode="layer"
     id="layer1">
    <g
       aria-label="I"
       id="text1516"
       style="font-size:50.8px;font-family:Aldhabi;-inkscape-font-specification:Aldhabi;text-align:center;text-anchor:middle;fill:#dd748e;stroke-width:0.264583" />
    <g
       aria-label="I"
       transform="matrix(3.5718106,0,0,1.5020717,-228.55383,34.855696)"
       id="text2483"
       style="font-size:50.8px;font-family:Aldhabi;-inkscape-font-specification:Aldhabi;text-align:center;text-anchor:middle;fill:#ffffff;fill-opacity:1;stroke-width:0.264583;filter:url(#filter2543)">
      <path
         d="m 86.509766,57.255859 c -0.135243,0.444631 0.03401,0.912836 -0.07031,1.361329 0.0875,0.271387 0.42473,0.154301 0.634766,0.183593 1.084206,0.02321 2.242232,-0.0429 3.222656,0.503907 0.600146,0.441752 0.717868,1.245133 0.709474,1.940655 0.255059,3.775587 0.178464,7.562189 0.188886,11.343555 -0.02477,4.700072 -0.01969,9.400694 -0.100643,14.100183 -0.0367,1.219936 -0.08796,2.447188 -0.302962,3.649754 -0.180369,0.53837 -0.752988,0.826627 -1.292117,0.850936 -0.897534,0.127769 -1.794932,-0.06979 -2.690919,-0.113599 -0.213705,-0.110002 -3.616222,-0.855435 -3.513134,-0.646134 0.03595,0.353998 -1.082504,2.774197 1.942364,2.521102 0.30344,0.16407 1.925781,0.124707 2.22296,-0.01314 3.470197,0.127518 6.948524,0.04406 10.418656,-0.224553 0.92925,-0.04195 5.090217,-0.08181 6.020127,-0.106026 l 0.15763,-1.81471 c -1.2756,0.06881 -5.972999,0.713486 -7.232978,0.349866 -0.559938,-0.220149 -0.729507,-0.882974 -0.716752,-1.428819 -0.321893,-3.013694 -0.25113,-6.049128 -0.280849,-9.074819 0.004,-5.460973 0.06636,-10.921839 0.149919,-16.382082 0.03804,-1.416332 0.06091,-2.841126 0.281486,-4.242565 0.165538,-0.569844 0.72067,-0.983905 1.31184,-0.995734 0.905606,-0.166714 1.829885,-0.155433 2.746544,-0.19434 0.21586,0.102217 0.45884,-0.146714 0.35937,-0.360655 v -1.237002 c -4.133903,0.356424 -8.293068,0.331763 -12.431794,0.07203 l -1.718592,-0.07789 -0.01559,0.03508 z"
         style="font-family:'Book Antiqua';-inkscape-font-specification:'Book Antiqua';fill:#ffffff;fill-opacity:1"
         id="path2547"
         sodipodi:nodetypes="scccccccccccccccccccccccccccs" />
    </g>
    <text
       xml:space="preserve"
       style="font-style:normal;font-variant:normal;font-weight:normal;font-stretch:normal;font-size:50.8px;font-family:'Book Antiqua';-inkscape-font-specification:'Book Antiqua';text-align:center;text-anchor:middle;fill:#dd748e;stroke-width:0.264583"
       x="71.742157"
       y="65.024727"
       id="text2487"><tspan
         sodipodi:role="line"
         id="tspan2485"
         style="stroke-width:0.264583"
         x="71.742157"
         y="65.024727" /></text>
    <text
       xml:space="preserve"
       style="font-style:normal;font-variant:normal;font-weight:normal;font-stretch:normal;font-size:93.7225px;font-family:'Book Antiqua';-inkscape-font-specification:'Book Antiqua';text-align:center;text-anchor:middle;fill:#16ff00;fill-opacity:1;stroke-width:0.488135"
       x="70.772354"
       y="258.12241"
       id="text2552"
       transform="scale(1.2282551,0.81416311)"><tspan
         sodipodi:role="line"
         id="tspan2550"
         style="fill:#16ff00;fill-opacity:1;stroke-width:0.488135"
         x="70.772354"
         y="258.12241">s</tspan></text>
    <g
       aria-label="s"
       transform="matrix(0.63466797,0,0,0.41921863,44.677014,115.12219)"
       id="text4698"
       style="font-size:182.017px;font-family:'Book Antiqua';-inkscape-font-specification:'Book Antiqua';text-align:center;text-anchor:middle;fill:#16ff00;stroke-width:0.948001;fill-opacity:1">
      <path
         d="m 99.62584,200.7891 2.22776,4.81466 c 1.56524,3.38283 3.11602,6.53089 3.84312,7.65665 0.89993,2.10264 4.53265,3.73277 8.97643,5.51028 4.50302,1.77751 9.12454,2.66626 13.86457,2.66626 6.10279,0 11.07981,-1.62938 14.93108,-4.88815 3.85127,-3.31802 5.77691,-7.25817 5.77691,-11.82044 0,-3.61427 -1.12576,-6.51753 -3.37727,-8.7098 -2.25151,-2.19226 -6.54716,-3.94014 -12.88694,-5.24365 -11.79082,-2.37001 -19.58224,-4.44377 -23.37426,-6.22128 -3.79202,-1.77751 -6.63603,-4.14753 -8.53204,-7.11004 -1.896007,-2.96252 -2.844011,-6.54717 -2.844011,-10.75394 0,-7.88029 2.844011,-14.27933 8.532041,-19.1971 5.74728,-4.91778 13.86457,-7.37667 24.35188,-7.37667 8.29505,0 16.56047,1.65901 24.79626,4.97703 -0.474,4.02902 -0.85913,10.78356 -1.15538,20.26361 h -5.24365 c -0.1185,-5.21403 -0.68138,-8.65055 -1.68864,-10.30956 -1.36275,-2.19226 -3.85127,-4.17714 -7.46554,-5.95465 -3.61427,-1.77751 -7.46554,-2.66627 -11.55381,-2.66627 -5.39178,0 -9.71705,1.39238 -12.97582,4.17715 -3.19952,2.72551 -4.79928,6.16203 -4.79928,10.30956 0,3.96977 1.27388,6.96191 3.82165,8.97642 2.54776,2.07376 9.59855,4.26602 21.15236,6.57679 8.53205,1.71826 14.16083,3.31802 16.88634,4.79927 2.72552,1.48126 4.91778,3.73277 6.57679,6.75454 1.65901,3.02177 2.48851,6.48791 2.48851,10.39843 0,7.99879 -3.43652,14.90146 -10.30955,20.70799 -6.81379,5.80653 -15.93834,8.7098 -27.37365,8.7098 -7.28779,0 -15.46434,-1.15538 -24.529628,-3.46615 -1.599759,-0.41475 -2.399638,-1.03687 -2.399638,-1.86638 l 0.266626,-1.24426 c 0.237001,-0.88875 0.444378,-2.45889 0.622129,-4.7104 0.533253,-5.74728 0.799879,-10.22068 0.799879,-13.4202 l -0.08888,-4.26602 z"
         id="path12152"
         sodipodi:nodetypes="csccscsscssscsccccsscsccssscsccccccc"
         style="fill:#16ff00;fill-opacity:1" />
    </g>
    <text
       xml:space="preserve"
       style="font-style:normal;font-variant:normal;font-weight:normal;font-stretch:normal;font-size:65.7895px;font-family:'Book Antiqua';-inkscape-font-specification:'Book Antiqua';text-align:center;text-anchor:middle;fill:#ffffff;fill-opacity:1;stroke-width:0.342649"
       x="59.92881"
       y="309.62549"
       id="text4702"
       transform="scale(1.262681,0.79196566)"><tspan
         id="tspan4700"
         style="font-style:normal;font-variant:normal;font-weight:normal;font-stretch:normal;font-size:65.7895px;font-family:'Bookman Old Style';-inkscape-font-specification:'Bookman Old Style';fill:#ffffff;fill-opacity:1;stroke-width:0.342649"
         x="59.92881"
         y="309.62549"
         sodipodi:role="line">A</tspan></text>
    <g
       aria-label="M"
       transform="matrix(1.9497762,0,0,1.7419403,-89.728573,-0.10686248)"
       id="text4706"
       style="font-size:43.8291px;font-family:'Book Antiqua';-inkscape-font-specification:'Book Antiqua';text-align:center;text-anchor:middle;fill:#ffffff;fill-opacity:1;stroke-width:0.228276">
      <path
         d="m 96.359577,119.33186 c 0.829185,0.0217 1.697263,-0.0793 2.488401,0.20682 0.470287,0.19303 0.688617,0.68182 0.697766,1.13981 0.171065,1.92723 0.116537,3.86398 0.129218,5.79592 -0.0064,2.87016 0.01388,5.7405 -0.01132,8.61055 -0.03419,1.34035 -0.08308,2.68424 -0.252448,4.016 -0.06798,0.43866 -0.308776,0.92783 -0.813179,1.03403 -0.728801,0.18613 -1.492774,0.10012 -2.238465,0.12073 v 1.01586 c 2.075911,0.20782 4.54339,0.11718 6.64954,0.21932 0.51494,0.016 1.02941,-0.24092 1.54411,-0.21932 v -1.01586 c -0.86403,-0.0126 -1.77967,0.0574 -2.58461,-0.2926 -0.32495,-0.12556 -0.45834,-0.4475 -0.4972,-0.75266 -0.20199,-1.26408 -0.19172,-2.54773 -0.2133,-3.823 -0.007,-4.37869 -8e-4,-8.75739 -0.003,-13.13609 2.17525,4.23845 4.36687,8.46954 6.5316,12.71273 1.10021,2.19821 2.22869,4.38496 3.25783,6.61371 0.22608,-0.0229 0.51698,0.0455 0.7031,-0.0336 2.0511,-4.67714 3.81559,-9.28527 6.15103,-13.84096 1.01648,-2.01514 2.21773,-4.08753 3.64071,-5.90234 -0.005,4.76562 0.009,9.53132 -0.007,14.2969 -0.0254,1.10223 -0.0151,2.21231 -0.19306,3.30448 -0.0248,0.36897 -0.33852,0.65723 -0.71091,0.73807 -0.69762,0.18434 -1.43104,0.0926 -2.14548,0.11541 l -0.59645,1.14605 c 3.19815,-0.13845 6.99995,-0.28793 10.19777,-0.13019 v -1.01586 c -0.8477,-0.0225 -1.74499,0.0899 -2.54249,-0.24365 -0.33994,-0.12863 -0.51547,-0.45374 -0.55002,-0.78105 -0.20416,-1.25549 -0.1845,-2.53128 -0.20379,-3.79808 -4.5e-4,-4.25372 -0.008,-8.50754 0.004,-12.76124 0.0285,-0.86899 0.0135,-1.75156 0.22124,-2.60335 0.0938,-0.45811 0.63306,-0.61547 1.06103,-0.67793 0.66486,-0.0954 1.34015,-0.0458 2.00987,-0.0586 v -1.01586 c -1.8098,0.0692 -3.54427,-0.17372 -5.35475,-0.11242 -0.41601,-0.0171 -3.144,-0.0653 -3.55989,-0.085 -1.52999,4.3793 -2.43874,7.70062 -4.09604,11.80782 -1.12556,2.1798 -1.73377,4.50271 -2.85934,6.68252 -2.14411,-4.15734 -5.09302,-8.14055 -7.21589,-12.30752 -0.97517,-1.93329 -3.79566,-11.1296 -3.84451,-10.2296 -0.9369,1.27541 -0.87803,1.78249 -1.06707,2.82506 l -3.726857,1.4195 v 1.01586 z"
         id="path4708"
         sodipodi:nodetypes="cccccccccccccccccccccccccccccccccccccccccccccc"
         style="fill:#ffffff;fill-opacity:1;stroke-width:0.177556" />
    </g>
    <rect
       style="fill:#16ff00;stroke-width:0.264583;fill-opacity:1"
       id="rect1323"
       width="190.59589"
       height="15.763565"
       x="10.389627"
       y="244.69362"
       ry="0" />
    <path
       id="rect1325"
       style="fill:#16ff00;stroke-width:0.888325;fill-opacity:1"
       inkscape:transform-center-x="-1.2064373"
       inkscape:transform-center-y="0.37812677"
       transform="matrix(0.40446963,0.91455143,-0.77179962,0.63586582,0,0)"
       d="m 328.12646,-88.084759 c -68.40132,0.07267 -137.13435,0.526167 -205.53544,0.734939 -5.74595,0.339259 -10.82023,0.0093 -16.61755,0.437457 -2.33794,0.02563 -3.9913,0.173006 -7.047689,0.140879 -1.739088,-0.0085 -1.821793,0.352962 -1.361426,1.545318 0.276572,0.694317 0.415131,0.663844 0.551743,1.492455 0.828714,3.113122 2.324082,6.665939 3.409182,9.488543 0.56791,0.368325 -0.15229,-0.48361 0.0687,0.07412 7.81612,-0.457521 14.49473,1.693135 22.30584,1.441057 59.23069,0.206531 118.46183,0.201885 177.6928,0.203334 8.87454,-0.0054 17.74982,-0.0064 26.62386,-0.04095 1.11038,0.02034 1.8267,-1.139564 1.91136,-2.139505 0.0433,-0.725076 7.08504,-0.543898 9.82529,-4.542783 1.90126,-2.765175 2.36466,-3.278985 4.97466,-7.136103 -3.87413,-0.441724 -13.88172,-1.486099 -16.09701,-1.677625 z"
       sodipodi:nodetypes="cccccccccccccccc" />
    <path
       id="rect1327"
       style="fill:#16ff00;stroke-width:0.888325;fill-opacity:1"
       inkscape:transform-center-x="1.2080268"
       inkscape:transform-center-y="0.37299922"
       d="m -14.279704,111.08494 c -6.970861,0.70804 -10.938939,1.315 -16.792598,1.65558 -3.323489,0.49238 -6.220006,2.55643 -9.525354,2.38839 -0.548211,0.55824 0.03728,1.31625 0.0322,1.97929 0.223708,1.72335 1.103869,3.33662 2.330913,4.54681 0.737686,1.04781 1.17975,2.2944 1.306806,3.56765 0.709188,0.53908 1.578292,-0.0439 2.372008,0.0734 5.326759,-0.10125 10.277646,2.43006 15.585874,2.52392 8.113133,0.30835 16.2338351,0.20038 24.3507904,0.26461 42.4723936,0.11561 84.9449646,0.14279 127.4174546,0.20968 18.20522,0.0249 36.41045,0.0499 54.61567,0.0748 1.62507,-0.28667 12.45368,-5.76026 13.6628,-8.07543 0.68191,-0.9646 1.40846,-1.92324 3.5571,-5.03725 -0.39109,-0.14189 -12.04135,-1.15933 -16.12368,-1.64895 -1.86069,-0.13264 -2.8014,-0.11618 -5.48474,-0.22855 -65.66583,-0.11241 -129.052153,-2.51317 -194.719256,-2.43042 z"
       sodipodi:nodetypes="ccccccccccccccccc"
       transform="matrix(-0.40834472,0.9128278,0.76909589,0.63913341,0,0)" />
    <path
       sodipodi:type="star"
       style="fill:#16ff00;stroke-width:0.264583;fill-opacity:1"
       id="path2505"
       inkscape:flatsided="false"
       sodipodi:sides="3"
       sodipodi:cx="103.86537"
       sodipodi:cy="99.812088"
       sodipodi:r1="20.266413"
       sodipodi:r2="10.133207"
       sodipodi:arg1="1.5707963"
       sodipodi:arg2="2.6179939"
       inkscape:rounded="0"
       inkscape:randomized="0"
       d="m 103.86537,120.0785 -8.775613,-15.19981 -8.775614,-15.199808 17.551227,-10e-7 17.55123,0 -8.77561,15.199809 z"
       inkscape:transform-center-y="4.0963063"
       transform="matrix(0.7984274,0,0,0.80849191,22.380878,24.247288)" />
  </g>
  <g
     id="webslicer-layer"
     inkscape:label="Web Slicer"
     inkscape:groupmode="layer" />
</svg>
